<svg height="20" viewBox="0 0 15.602 20" width="15.602" xmlns="http://www.w3.org/2000/svg"><path d="m-8.75-11.875a2.813 2.813 0 0 0 2.813-2.812 2.812 2.812 0 0 0 -2.813-2.813 2.842 2.842 0 0 0 -2.85 2.813 2.845 2.845 0 0 0 2.85 2.812zm7.465-1.3a1.563 1.563 0 0 0 -2.2-.231l-2 1.621a5.331 5.331 0 0 1 -6.535 0l-2-1.621a1.563 1.563 0 0 0 -2.2.23 1.564 1.564 0 0 0 .231 2.2l2 1.62a8.277 8.277 0 0 0 1.484.934l-.035 9.668a1.253 1.253 0 0 0 1.25 1.25h.59a1.253 1.253 0 0 0 1.25-1.25v-4.371h1.25v4.375a1.253 1.253 0 0 0 1.255 1.25h.59a1.253 1.253 0 0 0 1.25-1.25v-9.668a8.262 8.262 0 0 0 1.483-.934l2-1.62a1.524 1.524 0 0 0 .337-2.2z" fill="#0d496d" transform="translate(16.562 17.5)"/></svg>