<svg width="140" height="140" viewBox="0 0 140 140" fill="none" xmlns="http://www.w3.org/2000/svg">
<g clip-path="url(#clip0_228_405)">
<rect width="140" height="140" fill="white"/>
<path d="M67.0001 6C68.3279 6.67756 69.6595 7.348 71.0001 8L73.0626 6.1875C80.1264 0.927238 86.3024 0.00408185 95.0001 1C101.232 2.6054 105.883 4.94137 110 10C110.441 10.5259 110.882 11.0519 111.336 11.5938C116.531 18.1999 117.93 25.7028 117 34L115 41L86.0001 42L79.0001 58C76.2885 55.2883 75.192 52.0717 73.7423 48.5859C73.4344 47.8563 73.1265 47.1267 72.8092 46.3749C71.8266 44.0435 70.8508 41.7093 69.8751 39.375C69.2102 37.7941 68.5448 36.2134 67.879 34.6328C66.2476 30.7574 64.6223 26.8794 63.0001 23H60.0001C59.5064 24.2156 59.0127 25.4312 58.504 26.6836C57.857 28.2683 57.2099 29.8529 56.5626 31.4375C56.2371 32.2399 55.9116 33.0424 55.5763 33.8691C55.2637 34.6329 54.9511 35.3967 54.629 36.1836C54.341 36.8906 54.053 37.5975 53.7562 38.3259C53.0001 40 53.0001 40 52.0001 41C50.0005 41.0876 47.9977 41.107 45.9962 41.0977C44.7813 41.0944 43.5663 41.0912 42.3146 41.0879C41.0352 41.0795 39.7558 41.0711 38.4376 41.0625C37.1543 41.058 35.8711 41.0535 34.5489 41.0488C31.366 41.037 28.1831 41.0205 25.0001 41C21.8296 30.6006 22.4036 22.9002 27.0001 13C30.2599 7.35802 36.8153 3.38381 42.961 1.35156C52.2829 -0.255655 58.9743 1.20196 67.0001 6Z" fill="#AD85E2"/>
<path d="M61 29C63.8508 32.3925 65.4758 36.1106 67.1367 40.1719C67.421 40.8543 67.7053 41.5367 67.9982 42.2398C68.9 44.4077 69.7938 46.5788 70.6875 48.75C71.2996 50.2255 71.9122 51.7007 72.5254 53.1758C74.0229 56.7814 75.5133 60.3899 77 64H80C80.4937 62.7844 80.9874 61.5688 81.4961 60.3164C82.1431 58.7317 82.7902 57.1471 83.4375 55.5625C83.763 54.7601 84.0885 53.9576 84.4238 53.1309C84.8927 51.9852 84.8927 51.9852 85.3711 50.8164C85.6591 50.1094 85.9471 49.4025 86.2439 48.6741C87 47 87 47 88 46C89.7807 45.9127 91.5648 45.893 93.3477 45.9023C94.4272 45.9056 95.5068 45.9088 96.6191 45.9121C98.3236 45.9247 98.3236 45.9247 100.062 45.9375C101.773 45.9443 101.773 45.9443 103.518 45.9512C106.345 45.963 109.173 45.9795 112 46C108.625 60.6567 92.2418 73.9522 80.375 82C75.6173 84.8493 72.584 86.4432 67 86C63.3582 84.4045 60.2242 82.3124 57 80C56.2575 79.4805 55.515 78.961 54.75 78.4258C42.9109 69.6945 33.5678 59.1356 27 46H55L56 41C56.8116 38.8791 57.6679 36.7748 58.5625 34.6875C59.2451 33.0846 59.2451 33.0846 59.9414 31.4492C60.4654 30.2369 60.4654 30.2369 61 29Z" fill="#AD85E2"/>
<path d="M38.2656 92.8672C39.478 92.8653 39.478 92.8653 40.7148 92.8633C41.5514 92.8671 42.388 92.871 43.25 92.875C44.0711 92.8711 44.8923 92.8673 45.7383 92.8633C49.5948 92.8694 53.3515 92.9851 57.1758 93.5C64.5309 94.4616 72.1379 94.4633 79.5 93.5C83.4361 93.0034 87.3463 92.7978 91.3125 92.6875C92.4843 92.6501 93.656 92.6127 94.8633 92.5742C98 93 98 93 100.418 94.8945C102 97 102 97 102 99C102.68 98.8182 103.36 98.6365 104.06 98.4492C107.183 97.6213 110.31 96.8106 113.438 96C115.041 95.5707 115.041 95.5707 116.678 95.1328C122.967 93.5171 128.503 92.5148 135 93C138.128 95.0331 138.809 96.4026 139.938 99.9375C140.015 103.729 139.282 104.998 137 108C134.147 109.634 134.147 109.634 130.664 111.051C130.037 111.311 129.409 111.571 128.763 111.839C126.723 112.68 124.675 113.496 122.625 114.312C121.216 114.886 119.807 115.461 118.398 116.036C114.913 117.455 111.42 118.852 107.922 120.238C106.157 120.938 104.393 121.642 102.629 122.347C99.799 123.473 96.9645 124.586 94.125 125.688C93.3201 126.002 92.5153 126.316 91.686 126.64C80.0069 131.061 69.8559 131.135 57.3965 130.482C56.148 130.451 54.8996 130.419 53.6133 130.387C52.487 130.337 51.3608 130.288 50.2004 130.237C46.5694 131.103 46.2554 131.639 44.1226 134.489C41.5407 137.819 41.5407 137.819 39.0738 138.644C36.8297 138.856 34.6785 138.867 32.4258 138.789C31.2173 138.785 31.2173 138.785 29.9844 138.781C28.2908 138.768 26.5972 138.738 24.9041 138.693C22.3094 138.625 19.7186 138.611 17.123 138.605C15.4739 138.586 13.8248 138.564 12.1758 138.539C11.4008 138.533 10.6257 138.526 9.82722 138.519C4.50491 138.354 4.50491 138.354 2.04956 136.631C0.318547 133.941 0.029996 132.228 0 129C1.16717 125.864 2.79653 123.061 4.5 120.188C4.95979 119.389 5.41958 118.591 5.89331 117.769C12.2554 106.905 19.2158 97.1588 31.8562 93.4563C34.0573 92.9878 36.0176 92.8707 38.2656 92.8672ZM83.5 97.9375C75.0321 98.969 66.7839 99.6338 58.2852 98.5078C53.544 97.8906 48.8398 97.7421 44.0625 97.6875C42.7989 97.644 42.7989 97.644 41.5098 97.5996C33.2684 97.5171 25.9699 100.249 19.8242 105.836C15.9193 110.468 13.0098 115.848 10.0649 121.125C9.3371 122.406 8.58268 123.673 7.80615 124.926C6.79694 126.575 5.89007 128.284 5 130C5.64645 133.118 5.64645 133.118 8 134C12.5989 134.273 17.2064 134.232 21.8125 134.25L25.7051 134.312C27.5623 134.32 27.5623 134.32 29.457 134.328C31.1582 134.342 31.1582 134.342 32.8938 134.356C36.4404 133.949 38.2025 133.2 41 131C41.4562 130.119 41.9125 129.238 42.3826 128.33C42.9163 127.561 43.4501 126.792 44 126C47.0842 125.528 47.0842 125.528 50.8789 125.723C52.291 125.767 53.7031 125.81 55.1152 125.854C57.3134 125.951 59.5106 126.06 61.7078 126.178C74.0124 126.787 83.5901 124.522 95 120C96.6125 119.377 98.225 118.754 99.8376 118.131C103.908 116.542 107.958 114.907 112.001 113.249C114.486 112.23 116.974 111.222 119.463 110.215C121.058 109.566 122.652 108.916 124.246 108.266C125.352 107.817 125.352 107.817 126.481 107.36C129.544 106.099 132.234 104.844 135 103L134 98C127.245 97.5833 121.105 99.1161 114.562 100.688C113.469 100.932 112.375 101.176 111.248 101.428C105.447 102.807 100.92 104.378 96.0222 107.762C92.0434 110.197 87.5501 111.417 83.125 112.812C82.1762 113.124 81.2275 113.435 80.25 113.756C73.3252 116 73.3252 116 71 116L70 112L73.5 111.375C78.3015 110.315 82.838 108.711 87.4375 107C88.1478 106.739 88.858 106.478 89.5898 106.208C93.6421 104.673 93.6421 104.673 97 102C96.6815 99.8918 96.6815 99.8918 96 98C91.7061 96.7253 87.8691 97.356 83.5 97.9375Z" fill="#AD85E2"/>
<path d="M61.8467 21.9802C65.3205 23.6254 66.1012 26.9239 67.4531 30.3164C67.7582 31.0475 68.0633 31.7785 68.3776 32.5317C69.3495 34.8697 70.2998 37.2157 71.25 39.5625C71.9049 41.1484 72.5611 42.7337 73.2188 44.3184C74.8285 48.2058 76.4192 52.1007 78 56C81.1433 51.285 83.4658 46.0684 86 41H125L126 45C123.943 47.0569 119.644 46.2575 116.809 46.3164C115.579 46.3476 115.579 46.3476 114.324 46.3794C111.695 46.445 109.066 46.5038 106.438 46.5625C104.659 46.6057 102.882 46.6493 101.104 46.6934C96.7358 46.8007 92.368 46.9019 88 47C87.3116 48.8234 87.3116 48.8234 86.6094 50.6836C85.9904 52.2685 85.3706 53.8532 84.75 55.4375C84.2995 56.6412 84.2995 56.6412 83.8398 57.8691C83.5369 58.6329 83.234 59.3967 82.9219 60.1836C82.6496 60.8906 82.3772 61.5975 82.0967 62.3259C81 64 81 64 78.8799 64.7385C77.9493 64.868 77.9493 64.868 77 65C73.1576 57.613 69.8457 50.0764 66.6875 42.375C66.2331 41.2754 65.7787 40.1759 65.3105 39.043C64.2037 36.3633 63.1003 33.6823 62 31C58.5277 34.2015 58.5277 34.2015 55 46H15L14 42C16.0569 39.9431 20.3556 40.7425 23.1914 40.6836C24.0112 40.6628 24.8311 40.642 25.6758 40.6206C28.3046 40.555 30.9335 40.4962 33.5625 40.4375C35.3405 40.3943 37.1185 40.3507 38.8965 40.3066C43.2642 40.1993 47.6321 40.0981 52 40C52.4937 38.7844 52.9874 37.5688 53.4961 36.3164C54.1431 34.7317 54.7902 33.1471 55.4375 31.5625C55.763 30.7601 56.0885 29.9576 56.4238 29.1309C56.7364 28.3671 57.049 27.6033 57.3711 26.8164C57.6591 26.1094 57.9471 25.4025 58.2439 24.6741C59.449 22.0059 59.449 22.0059 61.8467 21.9802Z" fill="#6A2BBB"/>
</g>
<defs>
<clipPath id="clip0_228_405">
<rect width="140" height="140" fill="white"/>
</clipPath>
</defs>
</svg>
